<?xml version="1.0" encoding="utf-8"?>
<!-- Generator: Adobe Illustrator 23.0.3, SVG Export Plug-In . SVG Version: 6.00 Build 0)  -->
<svg version="1.1" id="Icons" xmlns="http://www.w3.org/2000/svg" xmlns:xlink="http://www.w3.org/1999/xlink" x="0px" y="0px"
	 viewBox="0 0 32 32" style="enable-background:new 0 0 32 32;" xml:space="preserve">
<style type="text/css">
	.st0{fill:none;stroke:#000000;stroke-width:2;stroke-linecap:round;stroke-linejoin:round;stroke-miterlimit:10;}
</style>
<path class="st0" d="M28,20.6V25c0,1.1-0.9,2-2,2H6c-1.1,0-2-0.9-2-2v-4.4"/>
<path class="st0" d="M16,24L16,24c-1.1,0-2-0.9-2-2v-3h4v3C18,23.1,17.1,24,16,24z"/>
<path class="st0" d="M14,22H7c-2.2,0-4-1.8-4-4v-8c0-1.1,0.9-2,2-2h22c1.1,0,2,0.9,2,2v8c0,2.2-1.8,4-4,4h-7"/>
<path class="st0" d="M20,8h-8V6c0-1.1,0.9-2,2-2h4c1.1,0,2,0.9,2,2V8z"/>
<line class="st0" x1="7" y1="28" x2="7" y2="27"/>
<line class="st0" x1="25" y1="28" x2="25" y2="27"/>
</svg>
