<?xml version="1.0" encoding="utf-8"?>
<!-- Generator: Adobe Illustrator 17.0.0, SVG Export Plug-In . SVG Version: 6.00 Build 0)  -->
<!DOCTYPE svg PUBLIC "-//W3C//DTD SVG 1.1//EN" "http://www.w3.org/Graphics/SVG/1.1/DTD/svg11.dtd">
<svg version="1.1" id="Capa_1" xmlns="http://www.w3.org/2000/svg" xmlns:xlink="http://www.w3.org/1999/xlink" x="0px" y="0px"
	 width="595.28px" height="841.89px" viewBox="0 0 595.28 841.89" enable-background="new 0 0 595.28 841.89" xml:space="preserve">
<g>
	<g>
		<g>
			<path fill="#1B1B47" d="M297.64,123.305c-109.411,0-198.427,89.016-198.427,198.427c0,32.845,8.212,65.411,23.823,94.296
				L286.789,712.19c2.18,3.948,6.334,6.395,10.851,6.395c4.517,0,8.671-2.446,10.851-6.395l163.814-296.26
				c15.551-28.787,23.762-61.355,23.762-94.2C496.067,212.321,407.051,123.305,297.64,123.305z M450.541,404.026L297.64,680.557
				L144.8,404.135c-13.601-25.167-20.782-53.664-20.782-82.403c0-95.738,77.886-173.623,173.623-173.623
				s173.623,77.886,173.623,173.623C471.263,350.471,464.081,378.968,450.541,404.026z"/>
			<path fill="#1B1B47" d="M297.64,222.518c-54.705,0-99.213,44.508-99.213,99.213c0,54.706,44.508,99.214,99.213,99.214
				s99.213-44.508,99.213-99.213S352.345,222.518,297.64,222.518z M297.64,396.142c-41.032,0-74.41-33.378-74.41-74.41
				s33.378-74.41,74.41-74.41s74.41,33.378,74.41,74.41C372.05,362.763,338.672,396.142,297.64,396.142z"/>
		</g>
	</g>
</g>
</svg>
